<svg width="34" height="34" viewBox="0 0 34 34" fill="none" xmlns="http://www.w3.org/2000/svg">
<g clip-path="url(#clip0_3430_43)">
<path d="M1.4165 1.41666H7.08317L10.8798 20.3858C11.0094 21.0381 11.3642 21.6239 11.8822 22.0409C12.4002 22.4579 13.0483 22.6794 13.7132 22.6667H27.4832C28.148 22.6794 28.7962 22.4579 29.3141 22.0409C29.8321 21.6239 30.187 21.0381 30.3165 20.3858L32.5832 8.5H8.49984M14.1665 29.75C14.1665 30.5324 13.5322 31.1667 12.7498 31.1667C11.9674 31.1667 11.3332 30.5324 11.3332 29.75C11.3332 28.9676 11.9674 28.3333 12.7498 28.3333C13.5322 28.3333 14.1665 28.9676 14.1665 29.75ZM29.7498 29.75C29.7498 30.5324 29.1156 31.1667 28.3332 31.1667C27.5508 31.1667 26.9165 30.5324 26.9165 29.75C26.9165 28.9676 27.5508 28.3333 28.3332 28.3333C29.1156 28.3333 29.7498 28.9676 29.7498 29.75Z" stroke="#1E1E1E" stroke-width="4" stroke-linecap="round" stroke-linejoin="round"/>
</g>
<defs>
<clipPath id="clip0_3430_43">
<rect width="34" height="34" fill="white"/>
</clipPath>
</defs>
</svg>
