<svg width="48" height="51" viewBox="0 0 48 51" fill="none" xmlns="http://www.w3.org/2000/svg">
<path d="M46 6.37501C44.0848 7.8104 41.9642 8.90824 39.72 9.62626C38.5155 8.15472 36.9147 7.11173 35.1341 6.63835C33.3535 6.16497 31.479 6.28405 29.7642 6.97947C28.0493 7.67489 26.5769 8.91311 25.546 10.5267C24.515 12.1402 23.9754 14.0512 24 16.0013V18.1263C20.4853 18.2231 17.0025 17.3949 13.862 15.7153C10.7215 14.0358 8.02063 11.5571 6 8.50001C6 8.50001 -2 27.625 16 36.125C11.8811 39.0957 6.97431 40.5852 2 40.375C20 51 42 40.375 42 15.9375C41.9982 15.3456 41.9446 14.7551 41.84 14.1738C43.8812 12.0349 45.3217 9.33452 46 6.37501Z" stroke="#1E1E1E" stroke-width="4" stroke-linecap="round" stroke-linejoin="round"/>
</svg>
