<svg width="48" height="51" viewBox="0 0 48 51" fill="none" xmlns="http://www.w3.org/2000/svg">
<path d="M35 13.8125H35.02M14 4.25H34C39.5228 4.25 44 9.00697 44 14.875V36.125C44 41.993 39.5228 46.75 34 46.75H14C8.47715 46.75 4 41.993 4 36.125V14.875C4 9.00697 8.47715 4.25 14 4.25ZM32 24.1612C32.2468 25.9298 31.9625 27.736 31.1875 29.3229C30.4125 30.9099 29.1863 32.1968 27.6833 33.0006C26.1802 33.8044 24.4769 34.0841 22.8156 33.8001C21.1543 33.5161 19.6195 32.6827 18.4297 31.4185C17.2398 30.1543 16.4555 28.5236 16.1881 26.7585C15.9208 24.9933 16.1841 23.1835 16.9407 21.5865C17.6972 19.9896 18.9084 18.6867 20.402 17.8633C21.8956 17.0398 23.5955 16.7378 25.26 17C26.9578 17.2675 28.5297 18.1081 29.7434 19.3977C30.9571 20.6872 31.7482 22.3573 32 24.1612Z" stroke="#1E1E1E" stroke-width="4" stroke-linecap="round" stroke-linejoin="round"/>
</svg>
